<?xml version="1.0" standalone="no"?>
<!DOCTYPE svg PUBLIC "-//W3C//DTD SVG 20010904//EN"
 "http://www.w3.org/TR/2001/REC-SVG-20010904/DTD/svg10.dtd">
<svg version="1.0" xmlns="http://www.w3.org/2000/svg"
 width="1024.000000pt" height="1024.000000pt" viewBox="0 0 1024.000000 1024.000000"
 preserveAspectRatio="xMidYMid meet">

<g transform="translate(0.000000,1024.000000) scale(0.100000,-0.100000)"
fill="#000000" stroke="none">
<path d="M0 5120 l0 -5120 5120 0 5120 0 0 5120 0 5120 -5120 0 -5120 0 0
-5120z m7999 3958 c52 -5 137 -20 189 -34 103 -26 270 -101 308 -139 12 -12
26 -20 29 -17 3 4 3 -2 -1 -12 -5 -13 -4 -17 4 -12 6 3 13 2 17 -4 14 -22 -30
-7 -103 35 -97 57 -203 98 -312 122 -81 17 -212 18 -2945 18 -2696 0 -2865 -1
-2947 -18 -181 -37 -306 -92 -418 -186 -179 -150 -280 -300 -347 -516 l-28
-90 -5 -2410 c-3 -1325 -7 -2412 -9 -2415 -19 -32 -23 268 -28 2350 -4 1589
-2 2332 5 2415 14 158 41 258 102 380 61 124 115 192 224 288 172 150 379 231
631 247 182 11 5522 10 5634 -2z m-102 -1550 c63 -61 110 -145 129 -233 10
-48 11 -283 4 -1214 -5 -635 -7 -1158 -4 -1162 3 -5 2 -95 -2 -200 -5 -126
-10 -185 -16 -174 -6 9 -11 541 -14 1308 -2 711 -6 1329 -8 1374 -4 94 -37
176 -100 253 -81 98 -82 100 -61 100 9 0 41 -24 72 -52z m-534 -293 c83 -25
135 -69 171 -144 l31 -66 1 -495 c0 -272 -1 -470 -3 -439 l-4 56 -52 -8 c-28
-5 -68 -6 -89 -2 -23 3 -43 1 -52 -6 -8 -6 -28 -13 -45 -14 l-31 -2 0 -140 c0
-77 -3 -219 -6 -315 -7 -202 -17 -229 -89 -261 -39 -17 -98 -18 -1055 -21
-558 -2 -1179 -5 -1380 -8 -357 -5 -365 -5 -365 -25 0 -18 -8 -20 -67 -23 -50
-2 -68 -7 -68 -17 0 -7 6 -16 13 -18 6 -3 -25 -6 -70 -6 -76 -1 -83 -3 -83
-21 0 -18 -7 -20 -60 -20 -53 0 -60 -2 -60 -20 0 -18 -7 -20 -79 -20 l-79 0
-7 -40 -7 -40 -154 0 c-147 0 -154 -1 -154 -20 0 -17 -7 -20 -45 -20 -31 0
-45 -4 -45 -13 0 -16 -137 -27 -340 -27 l-128 0 -6 -35 c-6 -29 -12 -35 -41
-41 -25 -4 -35 -11 -35 -25 0 -12 -7 -19 -19 -19 -14 0 -20 -10 -26 -42 l-8
-43 -7 40 c-6 31 -7 21 -9 -46 -1 -100 12 -178 38 -231 10 -21 15 -38 10 -38
-14 0 -69 75 -81 110 -16 50 -34 2291 -19 2347 27 98 116 182 231 218 69 21
4302 22 4373 0z m-824 -2299 c-2 -3 -612 -6 -1354 -8 -743 -2 -1271 -1 -1175
2 212 7 2535 12 2529 6z m-2739 -12 c-36 -8 -100 -9 -100 -2 0 5 26 7 58 7 31
-1 50 -3 42 -5z m2958 -129 c-3 -3 -9 2 -12 12 -6 14 -5 15 5 6 7 -7 10 -15 7
-18z m55 -97 c20 -38 35 -68 32 -68 -6 0 -85 136 -85 146 0 14 16 -10 53 -78z
m-2567 16 c43 -21 79 -91 71 -140 -18 -110 -152 -151 -232 -71 -108 108 21
277 161 211z m1993 -4 c40 -20 71 -75 71 -123 0 -23 -22 -61 -52 -91 -56 -55
-174 -32 -204 39 -19 46 -18 79 5 124 34 66 109 88 180 51z m-3826 -482 c38
-40 53 -35 27 10 l-22 37 39 -36 c60 -57 104 -85 166 -108 56 -20 73 -21 640
-22 320 -1 789 -5 1042 -8 444 -6 457 -7 385 -21 -64 -13 -226 -15 -1070 -15
l-995 0 -55 26 c-66 31 -166 121 -209 188 -17 26 -31 52 -31 56 0 5 13 -11 29
-36 15 -24 40 -56 54 -71z"/>
<path d="M3715 6880 c-443 -5 -472 -6 -500 -24 -49 -32 -76 -59 -95 -96 -16
-32 -18 -86 -21 -640 -4 -598 -4 -605 16 -608 11 -3 34 -19 51 -36 17 -18 49
-37 71 -44 30 -9 507 -12 1981 -12 l1942 1 37 40 c42 45 48 66 46 159 -1 36
-5 304 -9 595 -6 488 -8 533 -25 565 -26 49 -63 88 -96 101 -28 11 -2357 10
-3398 -1z m345 -131 c255 -40 480 -302 497 -579 9 -140 -46 -299 -135 -395
-60 -64 -144 -131 -192 -153 -127 -57 -161 -65 -280 -66 -185 0 -289 45 -442
192 -73 71 -96 101 -131 171 -41 82 -42 88 -46 200 -4 133 7 196 54 296 42 93
100 163 178 219 147 105 316 144 497 115z m2506 -10 c88 -27 135 -51 205 -105
150 -115 234 -266 253 -456 4 -38 2 -59 -7 -66 -6 -5 -50 -10 -97 -11 -47 -2
-88 -7 -91 -13 -4 -7 -9 -3 -11 8 -3 11 -10 -4 -16 -36 -29 -131 -97 -218
-212 -274 -60 -29 -73 -31 -170 -31 -100 0 -109 2 -175 34 -62 31 -145 99
-145 120 0 10 -30 71 -35 71 -2 0 -7 -5 -11 -12 -4 -7 -3 -8 4 -4 11 6 17 -13
13 -37 -1 -5 4 -5 10 -1 9 5 10 1 7 -14 -4 -13 0 -23 8 -26 22 -8 16 -23 -11
-30 -15 -4 -27 -16 -31 -31 -4 -15 -16 -28 -30 -31 -13 -3 -21 -10 -18 -15 3
-5 1 -9 -4 -9 -14 0 -49 45 -44 58 2 7 -4 12 -13 12 -15 0 -14 -4 4 -34 12
-18 21 -35 21 -38 0 -14 -124 120 -140 151 -69 137 -65 325 11 490 75 162 253
299 436 336 105 20 210 18 289 -6z"/>
<path d="M3867 6480 c-99 -25 -209 -115 -248 -203 -33 -77 -32 -201 2 -277 27
-57 101 -140 148 -164 43 -23 173 -37 232 -26 119 23 214 106 269 237 46 108
49 168 15 238 -34 70 -100 136 -171 171 -62 30 -176 41 -247 24z"/>
<path d="M6377 6488 c-90 -9 -161 -44 -226 -113 -73 -77 -95 -130 -94 -230 0
-61 5 -92 22 -130 45 -101 145 -192 218 -199 21 -3 59 -7 84 -11 25 -4 70 -2
100 4 136 28 228 118 270 261 7 25 21 51 31 58 24 17 23 54 -3 130 -27 81 -91
152 -172 192 -76 37 -140 48 -230 38z"/>
<path d="M3853 5363 c9 -2 25 -2 35 0 9 3 1 5 -18 5 -19 0 -27 -2 -17 -5z"/>
<path d="M3923 5363 c9 -2 23 -2 30 0 6 3 -1 5 -18 5 -16 0 -22 -2 -12 -5z"/>
</g>
</svg>
